<svg width="32" height="33" viewBox="0 0 32 33" fill="none" xmlns="http://www.w3.org/2000/svg">
<path d="M22.4663 21.9957L16.1914 6.11432L9.93225 21.9957H4.5322L12.1414 23.2089L16.1914 9.64353L20.1014 23.2089L26.5064 21.9957H22.4663Z" fill="url(#paint0_linear_8_46)"/>
<path d="M14.1459 18.3923L16.4532 15.73L18.2661 18.3923L16.4532 20.0037L14.1459 18.3923Z" fill="url(#paint1_linear_8_46)"/>
<path d="M0 32.745V0.745026H9.88841L5.35622 1.52016V29.9399L11.0558 32.745H0Z" fill="url(#paint2_linear_8_46)"/>
<path d="M32 32.6654V0.772278H22.2958L26.7436 1.54482V29.8697L21.1502 32.6654H32Z" fill="url(#paint3_linear_8_46)"/>
<defs>
<linearGradient id="paint0_linear_8_46" x1="16.4062" y1="6.11432" x2="16.4062" y2="24.0361" gradientUnits="userSpaceOnUse">
<stop stop-color="#DC1B1B"/>
<stop offset="1" stop-color="#F9F5F5"/>
</linearGradient>
<linearGradient id="paint1_linear_8_46" x1="16.206" y1="15.73" x2="16.206" y2="20.0037" gradientUnits="userSpaceOnUse">
<stop stop-color="#DC1B1B"/>
<stop offset="1" stop-color="#F9F5F5"/>
</linearGradient>
<linearGradient id="paint2_linear_8_46" x1="7.51944" y1="0.745026" x2="7.51944" y2="32.745" gradientUnits="userSpaceOnUse">
<stop stop-color="#364CBF"/>
<stop offset="1" stop-color="#F6F7FF"/>
</linearGradient>
<linearGradient id="paint3_linear_8_46" x1="24.6207" y1="0.772278" x2="24.6207" y2="32.6654" gradientUnits="userSpaceOnUse">
<stop stop-color="#364CBF"/>
<stop offset="1" stop-color="#F6F7FF"/>
</linearGradient>
</defs>
</svg>
